<mxfile host="app.diagrams.net" modified="2021-05-08T08:09:44.904Z" agent="5.0 (Windows NT 10.0; WOW64) AppleWebKit/537.36 (KHTML, like Gecko) Chrome/75.0.3770.100 Safari/537.36" etag="fpUaa8y_zb_UxBWIy6Db" version="14.6.11" type="github">
  <diagram id="kKTmRhR4mgK1cSBu-74n" name="Page-1">
    <mxGraphModel dx="1842" dy="582" grid="1" gridSize="10" guides="1" tooltips="1" connect="1" arrows="1" fold="1" page="1" pageScale="1" pageWidth="827" pageHeight="1169" math="0" shadow="0">
      <root>
        <mxCell id="0" />
        <mxCell id="1" parent="0" />
        <mxCell id="11TxupdLAGD5MneOCEoi-136" style="edgeStyle=orthogonalEdgeStyle;rounded=0;orthogonalLoop=1;jettySize=auto;html=1;exitX=0.75;exitY=0.1;exitDx=0;exitDy=0;exitPerimeter=0;entryX=0;entryY=0.5;entryDx=0;entryDy=0;" edge="1" parent="1" source="11TxupdLAGD5MneOCEoi-1" target="11TxupdLAGD5MneOCEoi-3">
          <mxGeometry relative="1" as="geometry" />
        </mxCell>
        <mxCell id="11TxupdLAGD5MneOCEoi-138" style="edgeStyle=orthogonalEdgeStyle;rounded=0;orthogonalLoop=1;jettySize=auto;html=1;exitX=0.5;exitY=0.5;exitDx=0;exitDy=0;exitPerimeter=0;entryX=0;entryY=0.5;entryDx=0;entryDy=0;" edge="1" parent="1" source="11TxupdLAGD5MneOCEoi-1" target="11TxupdLAGD5MneOCEoi-62">
          <mxGeometry relative="1" as="geometry" />
        </mxCell>
        <mxCell id="11TxupdLAGD5MneOCEoi-1" value="Actor" style="shape=umlActor;verticalLabelPosition=middle;verticalAlign=middle;html=1;labelPosition=center;align=center;" vertex="1" parent="1">
          <mxGeometry x="-180" y="490" width="30" height="60" as="geometry" />
        </mxCell>
        <mxCell id="11TxupdLAGD5MneOCEoi-19" style="edgeStyle=orthogonalEdgeStyle;rounded=0;orthogonalLoop=1;jettySize=auto;html=1;exitX=1;exitY=0.5;exitDx=0;exitDy=0;entryX=0;entryY=0.5;entryDx=0;entryDy=0;labelPosition=center;verticalLabelPosition=middle;align=center;verticalAlign=middle;" edge="1" parent="1" source="11TxupdLAGD5MneOCEoi-3" target="11TxupdLAGD5MneOCEoi-6">
          <mxGeometry relative="1" as="geometry" />
        </mxCell>
        <mxCell id="11TxupdLAGD5MneOCEoi-20" style="edgeStyle=orthogonalEdgeStyle;rounded=0;orthogonalLoop=1;jettySize=auto;html=1;exitX=1;exitY=0.5;exitDx=0;exitDy=0;entryX=0;entryY=0.5;entryDx=0;entryDy=0;labelPosition=center;verticalLabelPosition=middle;align=center;verticalAlign=middle;" edge="1" parent="1" source="11TxupdLAGD5MneOCEoi-3" target="11TxupdLAGD5MneOCEoi-7">
          <mxGeometry relative="1" as="geometry" />
        </mxCell>
        <mxCell id="11TxupdLAGD5MneOCEoi-21" style="edgeStyle=orthogonalEdgeStyle;rounded=0;orthogonalLoop=1;jettySize=auto;html=1;exitX=1;exitY=0.5;exitDx=0;exitDy=0;entryX=0;entryY=0.5;entryDx=0;entryDy=0;labelPosition=center;verticalLabelPosition=middle;align=center;verticalAlign=middle;" edge="1" parent="1" source="11TxupdLAGD5MneOCEoi-3" target="11TxupdLAGD5MneOCEoi-8">
          <mxGeometry relative="1" as="geometry" />
        </mxCell>
        <mxCell id="11TxupdLAGD5MneOCEoi-74" style="edgeStyle=orthogonalEdgeStyle;rounded=0;orthogonalLoop=1;jettySize=auto;html=1;exitX=1;exitY=0.5;exitDx=0;exitDy=0;entryX=0;entryY=0.5;entryDx=0;entryDy=0;labelPosition=center;verticalLabelPosition=middle;align=center;verticalAlign=middle;" edge="1" parent="1" source="11TxupdLAGD5MneOCEoi-3" target="11TxupdLAGD5MneOCEoi-5">
          <mxGeometry relative="1" as="geometry" />
        </mxCell>
        <mxCell id="11TxupdLAGD5MneOCEoi-3" value="货品维护" style="ellipse;whiteSpace=wrap;html=1;labelPosition=center;verticalLabelPosition=middle;align=center;verticalAlign=middle;" vertex="1" parent="1">
          <mxGeometry x="35" y="130" width="125" height="60" as="geometry" />
        </mxCell>
        <mxCell id="11TxupdLAGD5MneOCEoi-5" value="货品分类" style="ellipse;whiteSpace=wrap;html=1;labelPosition=center;verticalLabelPosition=middle;align=center;verticalAlign=middle;" vertex="1" parent="1">
          <mxGeometry x="430" y="30" width="130" height="40" as="geometry" />
        </mxCell>
        <mxCell id="11TxupdLAGD5MneOCEoi-6" value="运输特性组" style="ellipse;whiteSpace=wrap;html=1;labelPosition=center;verticalLabelPosition=middle;align=center;verticalAlign=middle;" vertex="1" parent="1">
          <mxGeometry x="430" y="80" width="130" height="40" as="geometry" />
        </mxCell>
        <mxCell id="11TxupdLAGD5MneOCEoi-7" value="容器维护" style="ellipse;whiteSpace=wrap;html=1;labelPosition=center;verticalLabelPosition=middle;align=center;verticalAlign=middle;" vertex="1" parent="1">
          <mxGeometry x="430" y="130" width="130" height="40" as="geometry" />
        </mxCell>
        <mxCell id="11TxupdLAGD5MneOCEoi-8" value="容器换算规则" style="ellipse;whiteSpace=wrap;html=1;labelPosition=center;verticalLabelPosition=middle;align=center;verticalAlign=middle;" vertex="1" parent="1">
          <mxGeometry x="430" y="180" width="130" height="40" as="geometry" />
        </mxCell>
        <mxCell id="11TxupdLAGD5MneOCEoi-39" style="edgeStyle=orthogonalEdgeStyle;rounded=0;orthogonalLoop=1;jettySize=auto;html=1;exitX=1;exitY=0.5;exitDx=0;exitDy=0;entryX=0;entryY=0.5;entryDx=0;entryDy=0;labelPosition=center;verticalLabelPosition=middle;align=center;verticalAlign=middle;" edge="1" parent="1" source="11TxupdLAGD5MneOCEoi-9" target="11TxupdLAGD5MneOCEoi-10">
          <mxGeometry relative="1" as="geometry" />
        </mxCell>
        <mxCell id="11TxupdLAGD5MneOCEoi-40" style="edgeStyle=orthogonalEdgeStyle;rounded=0;orthogonalLoop=1;jettySize=auto;html=1;exitX=1;exitY=0.5;exitDx=0;exitDy=0;entryX=0;entryY=0.5;entryDx=0;entryDy=0;labelPosition=center;verticalLabelPosition=middle;align=center;verticalAlign=middle;" edge="1" parent="1" source="11TxupdLAGD5MneOCEoi-9" target="11TxupdLAGD5MneOCEoi-12">
          <mxGeometry relative="1" as="geometry" />
        </mxCell>
        <mxCell id="11TxupdLAGD5MneOCEoi-9" value="系统用户管理" style="ellipse;whiteSpace=wrap;html=1;labelPosition=center;verticalLabelPosition=middle;align=center;verticalAlign=middle;" vertex="1" parent="1">
          <mxGeometry x="40" y="435" width="120" height="50" as="geometry" />
        </mxCell>
        <mxCell id="11TxupdLAGD5MneOCEoi-25" style="edgeStyle=orthogonalEdgeStyle;rounded=0;orthogonalLoop=1;jettySize=auto;html=1;exitX=1;exitY=0.5;exitDx=0;exitDy=0;entryX=0;entryY=0.5;entryDx=0;entryDy=0;labelPosition=center;verticalLabelPosition=middle;align=center;verticalAlign=middle;" edge="1" parent="1" source="11TxupdLAGD5MneOCEoi-10" target="11TxupdLAGD5MneOCEoi-16">
          <mxGeometry relative="1" as="geometry">
            <mxPoint x="470" y="390" as="targetPoint" />
          </mxGeometry>
        </mxCell>
        <mxCell id="11TxupdLAGD5MneOCEoi-26" style="edgeStyle=orthogonalEdgeStyle;rounded=0;orthogonalLoop=1;jettySize=auto;html=1;exitX=1;exitY=0.5;exitDx=0;exitDy=0;entryX=0;entryY=0.5;entryDx=0;entryDy=0;labelPosition=center;verticalLabelPosition=middle;align=center;verticalAlign=middle;" edge="1" parent="1" source="11TxupdLAGD5MneOCEoi-10" target="11TxupdLAGD5MneOCEoi-22">
          <mxGeometry relative="1" as="geometry" />
        </mxCell>
        <mxCell id="11TxupdLAGD5MneOCEoi-43" style="edgeStyle=orthogonalEdgeStyle;rounded=0;orthogonalLoop=1;jettySize=auto;html=1;exitX=1;exitY=0.5;exitDx=0;exitDy=0;entryX=0;entryY=0.5;entryDx=0;entryDy=0;labelPosition=center;verticalLabelPosition=middle;align=center;verticalAlign=middle;" edge="1" parent="1" source="11TxupdLAGD5MneOCEoi-10" target="11TxupdLAGD5MneOCEoi-41">
          <mxGeometry relative="1" as="geometry" />
        </mxCell>
        <mxCell id="11TxupdLAGD5MneOCEoi-44" style="edgeStyle=orthogonalEdgeStyle;rounded=0;orthogonalLoop=1;jettySize=auto;html=1;exitX=1;exitY=0.5;exitDx=0;exitDy=0;entryX=0;entryY=0.5;entryDx=0;entryDy=0;labelPosition=center;verticalLabelPosition=middle;align=center;verticalAlign=middle;" edge="1" parent="1" source="11TxupdLAGD5MneOCEoi-10" target="11TxupdLAGD5MneOCEoi-42">
          <mxGeometry relative="1" as="geometry" />
        </mxCell>
        <mxCell id="11TxupdLAGD5MneOCEoi-10" value="运输委托客户" style="ellipse;whiteSpace=wrap;html=1;labelPosition=center;verticalLabelPosition=middle;align=center;verticalAlign=middle;" vertex="1" parent="1">
          <mxGeometry x="287" y="290" width="100" height="70" as="geometry" />
        </mxCell>
        <mxCell id="11TxupdLAGD5MneOCEoi-35" style="edgeStyle=orthogonalEdgeStyle;rounded=0;orthogonalLoop=1;jettySize=auto;html=1;exitX=1;exitY=0.5;exitDx=0;exitDy=0;entryX=0;entryY=0.5;entryDx=0;entryDy=0;labelPosition=center;verticalLabelPosition=middle;align=center;verticalAlign=middle;" edge="1" parent="1" source="11TxupdLAGD5MneOCEoi-12" target="11TxupdLAGD5MneOCEoi-31">
          <mxGeometry relative="1" as="geometry" />
        </mxCell>
        <mxCell id="11TxupdLAGD5MneOCEoi-36" style="edgeStyle=orthogonalEdgeStyle;rounded=0;orthogonalLoop=1;jettySize=auto;html=1;exitX=1;exitY=0.5;exitDx=0;exitDy=0;labelPosition=center;verticalLabelPosition=middle;align=center;verticalAlign=middle;" edge="1" parent="1" source="11TxupdLAGD5MneOCEoi-12" target="11TxupdLAGD5MneOCEoi-32">
          <mxGeometry relative="1" as="geometry" />
        </mxCell>
        <mxCell id="11TxupdLAGD5MneOCEoi-37" style="edgeStyle=orthogonalEdgeStyle;rounded=0;orthogonalLoop=1;jettySize=auto;html=1;exitX=1;exitY=0.5;exitDx=0;exitDy=0;entryX=0;entryY=0.5;entryDx=0;entryDy=0;labelPosition=center;verticalLabelPosition=middle;align=center;verticalAlign=middle;" edge="1" parent="1" source="11TxupdLAGD5MneOCEoi-12" target="11TxupdLAGD5MneOCEoi-29">
          <mxGeometry relative="1" as="geometry" />
        </mxCell>
        <mxCell id="11TxupdLAGD5MneOCEoi-38" style="edgeStyle=orthogonalEdgeStyle;rounded=0;orthogonalLoop=1;jettySize=auto;html=1;exitX=1;exitY=0.5;exitDx=0;exitDy=0;entryX=0;entryY=0.5;entryDx=0;entryDy=0;labelPosition=center;verticalLabelPosition=middle;align=center;verticalAlign=middle;" edge="1" parent="1" source="11TxupdLAGD5MneOCEoi-12" target="11TxupdLAGD5MneOCEoi-30">
          <mxGeometry relative="1" as="geometry" />
        </mxCell>
        <mxCell id="11TxupdLAGD5MneOCEoi-69" style="edgeStyle=orthogonalEdgeStyle;rounded=0;orthogonalLoop=1;jettySize=auto;html=1;exitX=1;exitY=0.5;exitDx=0;exitDy=0;entryX=0;entryY=0.5;entryDx=0;entryDy=0;labelPosition=center;verticalLabelPosition=middle;align=center;verticalAlign=middle;" edge="1" parent="1" source="11TxupdLAGD5MneOCEoi-12" target="11TxupdLAGD5MneOCEoi-65">
          <mxGeometry relative="1" as="geometry" />
        </mxCell>
        <mxCell id="11TxupdLAGD5MneOCEoi-12" value="签约运输公司" style="ellipse;whiteSpace=wrap;html=1;labelPosition=center;verticalLabelPosition=middle;align=center;verticalAlign=middle;" vertex="1" parent="1">
          <mxGeometry x="287" y="600" width="106" height="60" as="geometry" />
        </mxCell>
        <mxCell id="11TxupdLAGD5MneOCEoi-51" style="edgeStyle=orthogonalEdgeStyle;rounded=0;orthogonalLoop=1;jettySize=auto;html=1;exitX=1;exitY=0.5;exitDx=0;exitDy=0;entryX=0;entryY=0.5;entryDx=0;entryDy=0;labelPosition=center;verticalLabelPosition=middle;align=center;verticalAlign=middle;" edge="1" parent="1" source="11TxupdLAGD5MneOCEoi-16" target="11TxupdLAGD5MneOCEoi-45">
          <mxGeometry relative="1" as="geometry" />
        </mxCell>
        <mxCell id="11TxupdLAGD5MneOCEoi-52" style="edgeStyle=orthogonalEdgeStyle;rounded=0;orthogonalLoop=1;jettySize=auto;html=1;entryX=0;entryY=0.5;entryDx=0;entryDy=0;labelPosition=center;verticalLabelPosition=middle;align=center;verticalAlign=middle;" edge="1" parent="1" target="11TxupdLAGD5MneOCEoi-46">
          <mxGeometry relative="1" as="geometry">
            <mxPoint x="586" y="395" as="sourcePoint" />
          </mxGeometry>
        </mxCell>
        <mxCell id="11TxupdLAGD5MneOCEoi-53" style="edgeStyle=orthogonalEdgeStyle;rounded=0;orthogonalLoop=1;jettySize=auto;html=1;exitX=1;exitY=0.5;exitDx=0;exitDy=0;entryX=0;entryY=0.5;entryDx=0;entryDy=0;labelPosition=center;verticalLabelPosition=middle;align=center;verticalAlign=middle;" edge="1" parent="1" source="11TxupdLAGD5MneOCEoi-16" target="11TxupdLAGD5MneOCEoi-47">
          <mxGeometry relative="1" as="geometry" />
        </mxCell>
        <mxCell id="11TxupdLAGD5MneOCEoi-16" value="运输销售合同" style="ellipse;whiteSpace=wrap;html=1;labelPosition=center;verticalLabelPosition=middle;align=center;verticalAlign=middle;" vertex="1" parent="1">
          <mxGeometry x="474" y="370" width="112" height="50" as="geometry" />
        </mxCell>
        <mxCell id="11TxupdLAGD5MneOCEoi-22" value="联系地址管理" style="ellipse;whiteSpace=wrap;html=1;labelPosition=center;verticalLabelPosition=middle;align=center;verticalAlign=middle;" vertex="1" parent="1">
          <mxGeometry x="474" y="440" width="112" height="50" as="geometry" />
        </mxCell>
        <mxCell id="11TxupdLAGD5MneOCEoi-54" style="edgeStyle=orthogonalEdgeStyle;rounded=0;orthogonalLoop=1;jettySize=auto;html=1;exitX=1;exitY=0.5;exitDx=0;exitDy=0;entryX=0;entryY=0.5;entryDx=0;entryDy=0;labelPosition=center;verticalLabelPosition=middle;align=center;verticalAlign=middle;" edge="1" parent="1" source="11TxupdLAGD5MneOCEoi-29" target="11TxupdLAGD5MneOCEoi-48">
          <mxGeometry relative="1" as="geometry" />
        </mxCell>
        <mxCell id="11TxupdLAGD5MneOCEoi-55" style="edgeStyle=orthogonalEdgeStyle;rounded=0;orthogonalLoop=1;jettySize=auto;html=1;exitX=1;exitY=0.5;exitDx=0;exitDy=0;entryX=0;entryY=0.5;entryDx=0;entryDy=0;labelPosition=center;verticalLabelPosition=middle;align=center;verticalAlign=middle;" edge="1" parent="1" source="11TxupdLAGD5MneOCEoi-29" target="11TxupdLAGD5MneOCEoi-49">
          <mxGeometry relative="1" as="geometry" />
        </mxCell>
        <mxCell id="11TxupdLAGD5MneOCEoi-56" style="edgeStyle=orthogonalEdgeStyle;rounded=0;orthogonalLoop=1;jettySize=auto;html=1;exitX=1;exitY=0.5;exitDx=0;exitDy=0;entryX=0;entryY=0.5;entryDx=0;entryDy=0;labelPosition=center;verticalLabelPosition=middle;align=center;verticalAlign=middle;" edge="1" parent="1" source="11TxupdLAGD5MneOCEoi-29" target="11TxupdLAGD5MneOCEoi-50">
          <mxGeometry relative="1" as="geometry" />
        </mxCell>
        <mxCell id="11TxupdLAGD5MneOCEoi-29" value="运输采购合同" style="ellipse;whiteSpace=wrap;html=1;labelPosition=center;verticalLabelPosition=middle;align=center;verticalAlign=middle;" vertex="1" parent="1">
          <mxGeometry x="470" y="661" width="120" height="50" as="geometry" />
        </mxCell>
        <mxCell id="11TxupdLAGD5MneOCEoi-30" value="联系地址管理" style="ellipse;whiteSpace=wrap;html=1;labelPosition=center;verticalLabelPosition=middle;align=center;verticalAlign=middle;" vertex="1" parent="1">
          <mxGeometry x="470" y="720" width="120" height="50" as="geometry" />
        </mxCell>
        <mxCell id="11TxupdLAGD5MneOCEoi-31" value="银行账户管理" style="ellipse;whiteSpace=wrap;html=1;labelPosition=center;verticalLabelPosition=middle;align=center;verticalAlign=middle;" vertex="1" parent="1">
          <mxGeometry x="470" y="510" width="120" height="50" as="geometry" />
        </mxCell>
        <mxCell id="11TxupdLAGD5MneOCEoi-68" style="edgeStyle=orthogonalEdgeStyle;rounded=0;orthogonalLoop=1;jettySize=auto;html=1;exitX=1;exitY=0.5;exitDx=0;exitDy=0;entryX=0;entryY=0.5;entryDx=0;entryDy=0;labelPosition=center;verticalLabelPosition=middle;align=center;verticalAlign=middle;" edge="1" parent="1" source="11TxupdLAGD5MneOCEoi-32" target="11TxupdLAGD5MneOCEoi-67">
          <mxGeometry relative="1" as="geometry" />
        </mxCell>
        <mxCell id="11TxupdLAGD5MneOCEoi-32" value="机构人员管理" style="ellipse;whiteSpace=wrap;html=1;labelPosition=center;verticalLabelPosition=middle;align=center;verticalAlign=middle;" vertex="1" parent="1">
          <mxGeometry x="470" y="570" width="120" height="50" as="geometry" />
        </mxCell>
        <mxCell id="11TxupdLAGD5MneOCEoi-41" value="银行账户管理" style="ellipse;whiteSpace=wrap;html=1;labelPosition=center;verticalLabelPosition=middle;align=center;verticalAlign=middle;" vertex="1" parent="1">
          <mxGeometry x="474" y="240" width="112" height="50" as="geometry" />
        </mxCell>
        <mxCell id="11TxupdLAGD5MneOCEoi-42" value="机构人员管理" style="ellipse;whiteSpace=wrap;html=1;labelPosition=center;verticalLabelPosition=middle;align=center;verticalAlign=middle;" vertex="1" parent="1">
          <mxGeometry x="474" y="310" width="112" height="50" as="geometry" />
        </mxCell>
        <mxCell id="11TxupdLAGD5MneOCEoi-45" value="区域信息" style="ellipse;whiteSpace=wrap;html=1;labelPosition=center;verticalLabelPosition=middle;align=center;verticalAlign=middle;" vertex="1" parent="1">
          <mxGeometry x="650" y="339" width="120" height="31" as="geometry" />
        </mxCell>
        <mxCell id="11TxupdLAGD5MneOCEoi-46" value="区域分类" style="ellipse;whiteSpace=wrap;html=1;labelPosition=center;verticalLabelPosition=middle;align=center;verticalAlign=middle;" vertex="1" parent="1">
          <mxGeometry x="650" y="379" width="120" height="31" as="geometry" />
        </mxCell>
        <mxCell id="11TxupdLAGD5MneOCEoi-60" style="edgeStyle=orthogonalEdgeStyle;rounded=0;orthogonalLoop=1;jettySize=auto;html=1;exitX=1;exitY=0.5;exitDx=0;exitDy=0;labelPosition=center;verticalLabelPosition=middle;align=center;verticalAlign=middle;" edge="1" parent="1" source="11TxupdLAGD5MneOCEoi-47" target="11TxupdLAGD5MneOCEoi-58">
          <mxGeometry relative="1" as="geometry" />
        </mxCell>
        <mxCell id="11TxupdLAGD5MneOCEoi-47" value="合同报价路由" style="ellipse;whiteSpace=wrap;html=1;labelPosition=center;verticalLabelPosition=middle;align=center;verticalAlign=middle;" vertex="1" parent="1">
          <mxGeometry x="650" y="420" width="120" height="31" as="geometry" />
        </mxCell>
        <mxCell id="11TxupdLAGD5MneOCEoi-48" value="区域信息" style="ellipse;whiteSpace=wrap;html=1;labelPosition=center;verticalLabelPosition=middle;align=center;verticalAlign=middle;" vertex="1" parent="1">
          <mxGeometry x="660" y="630" width="120" height="31" as="geometry" />
        </mxCell>
        <mxCell id="11TxupdLAGD5MneOCEoi-49" value="区域分类" style="ellipse;whiteSpace=wrap;html=1;labelPosition=center;verticalLabelPosition=middle;align=center;verticalAlign=middle;" vertex="1" parent="1">
          <mxGeometry x="660" y="670.5" width="120" height="31" as="geometry" />
        </mxCell>
        <mxCell id="11TxupdLAGD5MneOCEoi-61" style="edgeStyle=orthogonalEdgeStyle;rounded=0;orthogonalLoop=1;jettySize=auto;html=1;exitX=1;exitY=0.5;exitDx=0;exitDy=0;entryX=0;entryY=0.5;entryDx=0;entryDy=0;labelPosition=center;verticalLabelPosition=middle;align=center;verticalAlign=middle;" edge="1" parent="1" source="11TxupdLAGD5MneOCEoi-50" target="11TxupdLAGD5MneOCEoi-59">
          <mxGeometry relative="1" as="geometry" />
        </mxCell>
        <mxCell id="11TxupdLAGD5MneOCEoi-50" value="运输执行路线" style="ellipse;whiteSpace=wrap;html=1;labelPosition=center;verticalLabelPosition=middle;align=center;verticalAlign=middle;" vertex="1" parent="1">
          <mxGeometry x="660" y="729.5" width="120" height="31" as="geometry" />
        </mxCell>
        <mxCell id="11TxupdLAGD5MneOCEoi-58" value="路由分段" style="ellipse;whiteSpace=wrap;html=1;labelPosition=center;verticalLabelPosition=middle;align=center;verticalAlign=middle;" vertex="1" parent="1">
          <mxGeometry x="830" y="420" width="120" height="31" as="geometry" />
        </mxCell>
        <mxCell id="11TxupdLAGD5MneOCEoi-59" value="路由分段" style="ellipse;whiteSpace=wrap;html=1;labelPosition=center;verticalLabelPosition=middle;align=center;verticalAlign=middle;" vertex="1" parent="1">
          <mxGeometry x="830" y="729.5" width="120" height="31" as="geometry" />
        </mxCell>
        <mxCell id="11TxupdLAGD5MneOCEoi-62" value="计费规则维护&lt;br&gt;" style="ellipse;whiteSpace=wrap;html=1;labelPosition=center;verticalLabelPosition=middle;align=center;verticalAlign=middle;" vertex="1" parent="1">
          <mxGeometry x="40" y="790" width="130" height="50" as="geometry" />
        </mxCell>
        <mxCell id="11TxupdLAGD5MneOCEoi-93" style="edgeStyle=orthogonalEdgeStyle;rounded=0;orthogonalLoop=1;jettySize=auto;html=1;exitX=1;exitY=0.5;exitDx=0;exitDy=0;entryX=0;entryY=0.5;entryDx=0;entryDy=0;labelPosition=center;verticalLabelPosition=middle;align=center;verticalAlign=middle;" edge="1" parent="1" source="11TxupdLAGD5MneOCEoi-63" target="11TxupdLAGD5MneOCEoi-75">
          <mxGeometry relative="1" as="geometry" />
        </mxCell>
        <mxCell id="11TxupdLAGD5MneOCEoi-94" style="edgeStyle=orthogonalEdgeStyle;rounded=0;orthogonalLoop=1;jettySize=auto;html=1;exitX=1;exitY=0.5;exitDx=0;exitDy=0;entryX=0;entryY=0.5;entryDx=0;entryDy=0;labelPosition=center;verticalLabelPosition=middle;align=center;verticalAlign=middle;" edge="1" parent="1" source="11TxupdLAGD5MneOCEoi-63" target="11TxupdLAGD5MneOCEoi-76">
          <mxGeometry relative="1" as="geometry" />
        </mxCell>
        <mxCell id="11TxupdLAGD5MneOCEoi-95" style="edgeStyle=orthogonalEdgeStyle;rounded=0;orthogonalLoop=1;jettySize=auto;html=1;exitX=1;exitY=0.5;exitDx=0;exitDy=0;entryX=0;entryY=0.5;entryDx=0;entryDy=0;labelPosition=center;verticalLabelPosition=middle;align=center;verticalAlign=middle;" edge="1" parent="1" source="11TxupdLAGD5MneOCEoi-63" target="11TxupdLAGD5MneOCEoi-84">
          <mxGeometry relative="1" as="geometry" />
        </mxCell>
        <mxCell id="11TxupdLAGD5MneOCEoi-123" style="edgeStyle=orthogonalEdgeStyle;rounded=0;orthogonalLoop=1;jettySize=auto;html=1;exitX=1;exitY=0.5;exitDx=0;exitDy=0;entryX=0;entryY=0.5;entryDx=0;entryDy=0;labelPosition=center;verticalLabelPosition=middle;align=center;verticalAlign=middle;" edge="1" parent="1" source="11TxupdLAGD5MneOCEoi-63" target="11TxupdLAGD5MneOCEoi-99">
          <mxGeometry relative="1" as="geometry" />
        </mxCell>
        <mxCell id="11TxupdLAGD5MneOCEoi-63" value="生成订单/发货单" style="ellipse;whiteSpace=wrap;html=1;labelPosition=center;verticalLabelPosition=middle;align=center;verticalAlign=middle;" vertex="1" parent="1">
          <mxGeometry x="40" y="1020" width="130" height="50" as="geometry" />
        </mxCell>
        <mxCell id="11TxupdLAGD5MneOCEoi-143" style="edgeStyle=orthogonalEdgeStyle;rounded=0;orthogonalLoop=1;jettySize=auto;html=1;exitX=1;exitY=0.5;exitDx=0;exitDy=0;entryX=0;entryY=0.5;entryDx=0;entryDy=0;" edge="1" parent="1" source="11TxupdLAGD5MneOCEoi-64" target="11TxupdLAGD5MneOCEoi-103">
          <mxGeometry relative="1" as="geometry" />
        </mxCell>
        <mxCell id="11TxupdLAGD5MneOCEoi-144" style="edgeStyle=orthogonalEdgeStyle;rounded=0;orthogonalLoop=1;jettySize=auto;html=1;exitX=1;exitY=0.5;exitDx=0;exitDy=0;entryX=0;entryY=0.5;entryDx=0;entryDy=0;" edge="1" parent="1" source="11TxupdLAGD5MneOCEoi-64" target="11TxupdLAGD5MneOCEoi-106">
          <mxGeometry relative="1" as="geometry" />
        </mxCell>
        <mxCell id="11TxupdLAGD5MneOCEoi-145" style="edgeStyle=orthogonalEdgeStyle;rounded=0;orthogonalLoop=1;jettySize=auto;html=1;exitX=1;exitY=0.5;exitDx=0;exitDy=0;entryX=0;entryY=0.5;entryDx=0;entryDy=0;" edge="1" parent="1" source="11TxupdLAGD5MneOCEoi-64" target="11TxupdLAGD5MneOCEoi-104">
          <mxGeometry relative="1" as="geometry" />
        </mxCell>
        <mxCell id="11TxupdLAGD5MneOCEoi-146" style="edgeStyle=orthogonalEdgeStyle;rounded=0;orthogonalLoop=1;jettySize=auto;html=1;exitX=1;exitY=0.5;exitDx=0;exitDy=0;" edge="1" parent="1" source="11TxupdLAGD5MneOCEoi-64" target="11TxupdLAGD5MneOCEoi-105">
          <mxGeometry relative="1" as="geometry" />
        </mxCell>
        <mxCell id="11TxupdLAGD5MneOCEoi-64" value="运单管理" style="ellipse;whiteSpace=wrap;html=1;labelPosition=center;verticalLabelPosition=middle;align=center;verticalAlign=middle;" vertex="1" parent="1">
          <mxGeometry x="40" y="1580" width="130" height="50" as="geometry" />
        </mxCell>
        <mxCell id="11TxupdLAGD5MneOCEoi-65" value="运输工具维护" style="ellipse;whiteSpace=wrap;html=1;labelPosition=center;verticalLabelPosition=middle;align=center;verticalAlign=middle;" vertex="1" parent="1">
          <mxGeometry x="470" y="790" width="120" height="50" as="geometry" />
        </mxCell>
        <mxCell id="11TxupdLAGD5MneOCEoi-67" value="司机维护" style="ellipse;whiteSpace=wrap;html=1;labelPosition=center;verticalLabelPosition=middle;align=center;verticalAlign=middle;" vertex="1" parent="1">
          <mxGeometry x="660" y="570" width="120" height="50" as="geometry" />
        </mxCell>
        <mxCell id="11TxupdLAGD5MneOCEoi-70" value="Actor" style="shape=umlActor;verticalLabelPosition=middle;verticalAlign=middle;html=1;labelPosition=center;align=center;" vertex="1" parent="1">
          <mxGeometry x="-180" y="1190" width="30" height="60" as="geometry" />
        </mxCell>
        <mxCell id="11TxupdLAGD5MneOCEoi-96" style="edgeStyle=orthogonalEdgeStyle;rounded=0;orthogonalLoop=1;jettySize=auto;html=1;exitX=1;exitY=0.5;exitDx=0;exitDy=0;entryX=0;entryY=0.5;entryDx=0;entryDy=0;labelPosition=center;verticalLabelPosition=middle;align=center;verticalAlign=middle;" edge="1" parent="1" source="11TxupdLAGD5MneOCEoi-75" target="11TxupdLAGD5MneOCEoi-80">
          <mxGeometry relative="1" as="geometry" />
        </mxCell>
        <mxCell id="11TxupdLAGD5MneOCEoi-97" style="edgeStyle=orthogonalEdgeStyle;rounded=0;orthogonalLoop=1;jettySize=auto;html=1;exitX=1;exitY=0.5;exitDx=0;exitDy=0;entryX=0;entryY=0.5;entryDx=0;entryDy=0;labelPosition=center;verticalLabelPosition=middle;align=center;verticalAlign=middle;" edge="1" parent="1" source="11TxupdLAGD5MneOCEoi-75" target="11TxupdLAGD5MneOCEoi-81">
          <mxGeometry relative="1" as="geometry" />
        </mxCell>
        <mxCell id="11TxupdLAGD5MneOCEoi-98" style="edgeStyle=orthogonalEdgeStyle;rounded=0;orthogonalLoop=1;jettySize=auto;html=1;exitX=1;exitY=0.5;exitDx=0;exitDy=0;entryX=0;entryY=0.5;entryDx=0;entryDy=0;labelPosition=center;verticalLabelPosition=middle;align=center;verticalAlign=middle;" edge="1" parent="1" source="11TxupdLAGD5MneOCEoi-75" target="11TxupdLAGD5MneOCEoi-82">
          <mxGeometry relative="1" as="geometry" />
        </mxCell>
        <mxCell id="11TxupdLAGD5MneOCEoi-75" value="已创建查询" style="ellipse;whiteSpace=wrap;html=1;labelPosition=center;verticalLabelPosition=middle;align=center;verticalAlign=middle;" vertex="1" parent="1">
          <mxGeometry x="287" y="910" width="120" height="60" as="geometry" />
        </mxCell>
        <mxCell id="11TxupdLAGD5MneOCEoi-79" value="" style="edgeStyle=orthogonalEdgeStyle;rounded=0;orthogonalLoop=1;jettySize=auto;html=1;labelPosition=center;verticalLabelPosition=middle;align=center;verticalAlign=middle;" edge="1" parent="1" source="11TxupdLAGD5MneOCEoi-76" target="11TxupdLAGD5MneOCEoi-78">
          <mxGeometry relative="1" as="geometry" />
        </mxCell>
        <mxCell id="11TxupdLAGD5MneOCEoi-76" value="已审单查询" style="ellipse;whiteSpace=wrap;html=1;labelPosition=center;verticalLabelPosition=middle;align=center;verticalAlign=middle;" vertex="1" parent="1">
          <mxGeometry x="287" y="1030" width="120" height="60" as="geometry" />
        </mxCell>
        <mxCell id="11TxupdLAGD5MneOCEoi-78" value="接单" style="ellipse;whiteSpace=wrap;html=1;labelPosition=center;verticalLabelPosition=middle;align=center;verticalAlign=middle;" vertex="1" parent="1">
          <mxGeometry x="480" y="1037.5" width="110" height="45" as="geometry" />
        </mxCell>
        <mxCell id="11TxupdLAGD5MneOCEoi-80" value="新增" style="ellipse;whiteSpace=wrap;html=1;labelPosition=center;verticalLabelPosition=middle;align=center;verticalAlign=middle;" vertex="1" parent="1">
          <mxGeometry x="480" y="880" width="110" height="40" as="geometry" />
        </mxCell>
        <mxCell id="11TxupdLAGD5MneOCEoi-81" value="修改" style="ellipse;whiteSpace=wrap;html=1;labelPosition=center;verticalLabelPosition=middle;align=center;verticalAlign=middle;" vertex="1" parent="1">
          <mxGeometry x="480" y="930" width="110" height="40" as="geometry" />
        </mxCell>
        <mxCell id="11TxupdLAGD5MneOCEoi-82" value="审单" style="ellipse;whiteSpace=wrap;html=1;labelPosition=center;verticalLabelPosition=middle;align=center;verticalAlign=middle;" vertex="1" parent="1">
          <mxGeometry x="480" y="980" width="110" height="40" as="geometry" />
        </mxCell>
        <mxCell id="11TxupdLAGD5MneOCEoi-83" value="取消" style="ellipse;whiteSpace=wrap;html=1;labelPosition=center;verticalLabelPosition=middle;align=center;verticalAlign=middle;" vertex="1" parent="1">
          <mxGeometry x="640" y="925" width="110" height="50" as="geometry" />
        </mxCell>
        <mxCell id="11TxupdLAGD5MneOCEoi-89" style="edgeStyle=orthogonalEdgeStyle;rounded=0;orthogonalLoop=1;jettySize=auto;html=1;exitX=1;exitY=0.5;exitDx=0;exitDy=0;entryX=0;entryY=0.5;entryDx=0;entryDy=0;labelPosition=center;verticalLabelPosition=middle;align=center;verticalAlign=middle;" edge="1" parent="1" source="11TxupdLAGD5MneOCEoi-84" target="11TxupdLAGD5MneOCEoi-85">
          <mxGeometry relative="1" as="geometry" />
        </mxCell>
        <mxCell id="11TxupdLAGD5MneOCEoi-90" style="edgeStyle=orthogonalEdgeStyle;rounded=0;orthogonalLoop=1;jettySize=auto;html=1;exitX=1;exitY=0.5;exitDx=0;exitDy=0;entryX=0;entryY=0.5;entryDx=0;entryDy=0;labelPosition=center;verticalLabelPosition=middle;align=center;verticalAlign=middle;" edge="1" parent="1" source="11TxupdLAGD5MneOCEoi-84" target="11TxupdLAGD5MneOCEoi-86">
          <mxGeometry relative="1" as="geometry" />
        </mxCell>
        <mxCell id="11TxupdLAGD5MneOCEoi-84" value="已接单查询" style="ellipse;whiteSpace=wrap;html=1;labelPosition=center;verticalLabelPosition=middle;align=center;verticalAlign=middle;" vertex="1" parent="1">
          <mxGeometry x="287" y="1150" width="120" height="60" as="geometry" />
        </mxCell>
        <mxCell id="11TxupdLAGD5MneOCEoi-91" style="edgeStyle=orthogonalEdgeStyle;rounded=0;orthogonalLoop=1;jettySize=auto;html=1;exitX=1;exitY=0.5;exitDx=0;exitDy=0;entryX=0;entryY=0.5;entryDx=0;entryDy=0;labelPosition=center;verticalLabelPosition=middle;align=center;verticalAlign=middle;" edge="1" parent="1" source="11TxupdLAGD5MneOCEoi-85" target="11TxupdLAGD5MneOCEoi-87">
          <mxGeometry relative="1" as="geometry" />
        </mxCell>
        <mxCell id="11TxupdLAGD5MneOCEoi-85" value="合单" style="ellipse;whiteSpace=wrap;html=1;labelPosition=center;verticalLabelPosition=middle;align=center;verticalAlign=middle;" vertex="1" parent="1">
          <mxGeometry x="480" y="1140" width="110" height="40" as="geometry" />
        </mxCell>
        <mxCell id="11TxupdLAGD5MneOCEoi-92" style="edgeStyle=orthogonalEdgeStyle;rounded=0;orthogonalLoop=1;jettySize=auto;html=1;exitX=1;exitY=0.5;exitDx=0;exitDy=0;entryX=0;entryY=0.5;entryDx=0;entryDy=0;labelPosition=center;verticalLabelPosition=middle;align=center;verticalAlign=middle;" edge="1" parent="1" source="11TxupdLAGD5MneOCEoi-86" target="11TxupdLAGD5MneOCEoi-88">
          <mxGeometry relative="1" as="geometry" />
        </mxCell>
        <mxCell id="11TxupdLAGD5MneOCEoi-86" value="拆单" style="ellipse;whiteSpace=wrap;html=1;labelPosition=center;verticalLabelPosition=middle;align=center;verticalAlign=middle;" vertex="1" parent="1">
          <mxGeometry x="480" y="1190" width="110" height="40" as="geometry" />
        </mxCell>
        <mxCell id="11TxupdLAGD5MneOCEoi-87" value="取消合单" style="ellipse;whiteSpace=wrap;html=1;labelPosition=center;verticalLabelPosition=middle;align=center;verticalAlign=middle;" vertex="1" parent="1">
          <mxGeometry x="630" y="1140" width="110" height="40" as="geometry" />
        </mxCell>
        <mxCell id="11TxupdLAGD5MneOCEoi-88" value="取消拆单" style="ellipse;whiteSpace=wrap;html=1;labelPosition=center;verticalLabelPosition=middle;align=center;verticalAlign=middle;" vertex="1" parent="1">
          <mxGeometry x="630" y="1190" width="110" height="40" as="geometry" />
        </mxCell>
        <mxCell id="11TxupdLAGD5MneOCEoi-99" value="查询" style="ellipse;whiteSpace=wrap;html=1;labelPosition=center;verticalLabelPosition=middle;align=center;verticalAlign=middle;" vertex="1" parent="1">
          <mxGeometry x="287" y="1255" width="120" height="60" as="geometry" />
        </mxCell>
        <mxCell id="11TxupdLAGD5MneOCEoi-100" value="订单状态跟踪" style="ellipse;whiteSpace=wrap;html=1;labelPosition=center;verticalLabelPosition=middle;align=center;verticalAlign=middle;" vertex="1" parent="1">
          <mxGeometry x="475" y="1260" width="115" height="50" as="geometry" />
        </mxCell>
        <mxCell id="11TxupdLAGD5MneOCEoi-103" value="创建运单" style="ellipse;whiteSpace=wrap;html=1;labelPosition=center;verticalLabelPosition=middle;align=center;verticalAlign=middle;" vertex="1" parent="1">
          <mxGeometry x="254" y="1400" width="133" height="50" as="geometry" />
        </mxCell>
        <mxCell id="11TxupdLAGD5MneOCEoi-104" value="查询运单" style="ellipse;whiteSpace=wrap;html=1;labelPosition=center;verticalLabelPosition=middle;align=center;verticalAlign=middle;" vertex="1" parent="1">
          <mxGeometry x="254" y="1490" width="133" height="50" as="geometry" />
        </mxCell>
        <mxCell id="11TxupdLAGD5MneOCEoi-105" value="分配承运方" style="ellipse;whiteSpace=wrap;html=1;labelPosition=center;verticalLabelPosition=middle;align=center;verticalAlign=middle;" vertex="1" parent="1">
          <mxGeometry x="257" y="1570" width="133" height="50" as="geometry" />
        </mxCell>
        <mxCell id="11TxupdLAGD5MneOCEoi-147" style="edgeStyle=orthogonalEdgeStyle;rounded=0;orthogonalLoop=1;jettySize=auto;html=1;exitX=1;exitY=0.5;exitDx=0;exitDy=0;entryX=0;entryY=0.5;entryDx=0;entryDy=0;" edge="1" parent="1" source="11TxupdLAGD5MneOCEoi-106" target="11TxupdLAGD5MneOCEoi-107">
          <mxGeometry relative="1" as="geometry" />
        </mxCell>
        <mxCell id="11TxupdLAGD5MneOCEoi-106" value="运单状态跟踪" style="ellipse;whiteSpace=wrap;html=1;labelPosition=center;verticalLabelPosition=middle;align=center;verticalAlign=middle;" vertex="1" parent="1">
          <mxGeometry x="257" y="1650" width="133" height="50" as="geometry" />
        </mxCell>
        <mxCell id="11TxupdLAGD5MneOCEoi-107" value="运单状态跟踪" style="ellipse;whiteSpace=wrap;html=1;labelPosition=center;verticalLabelPosition=middle;align=center;verticalAlign=middle;" vertex="1" parent="1">
          <mxGeometry x="475" y="1650" width="115" height="50" as="geometry" />
        </mxCell>
        <mxCell id="11TxupdLAGD5MneOCEoi-148" style="edgeStyle=orthogonalEdgeStyle;rounded=0;orthogonalLoop=1;jettySize=auto;html=1;exitX=1;exitY=0.5;exitDx=0;exitDy=0;entryX=0;entryY=0.5;entryDx=0;entryDy=0;" edge="1" parent="1" source="11TxupdLAGD5MneOCEoi-108" target="11TxupdLAGD5MneOCEoi-109">
          <mxGeometry relative="1" as="geometry" />
        </mxCell>
        <mxCell id="11TxupdLAGD5MneOCEoi-149" style="edgeStyle=orthogonalEdgeStyle;rounded=0;orthogonalLoop=1;jettySize=auto;html=1;exitX=1;exitY=0.5;exitDx=0;exitDy=0;entryX=0;entryY=0.5;entryDx=0;entryDy=0;" edge="1" parent="1" source="11TxupdLAGD5MneOCEoi-108" target="11TxupdLAGD5MneOCEoi-110">
          <mxGeometry relative="1" as="geometry" />
        </mxCell>
        <mxCell id="11TxupdLAGD5MneOCEoi-150" style="edgeStyle=orthogonalEdgeStyle;rounded=0;orthogonalLoop=1;jettySize=auto;html=1;exitX=1;exitY=0.5;exitDx=0;exitDy=0;entryX=0;entryY=0.5;entryDx=0;entryDy=0;" edge="1" parent="1" source="11TxupdLAGD5MneOCEoi-108" target="11TxupdLAGD5MneOCEoi-111">
          <mxGeometry relative="1" as="geometry" />
        </mxCell>
        <mxCell id="11TxupdLAGD5MneOCEoi-151" style="edgeStyle=orthogonalEdgeStyle;rounded=0;orthogonalLoop=1;jettySize=auto;html=1;exitX=1;exitY=0.5;exitDx=0;exitDy=0;entryX=0;entryY=0.5;entryDx=0;entryDy=0;" edge="1" parent="1" source="11TxupdLAGD5MneOCEoi-108" target="11TxupdLAGD5MneOCEoi-119">
          <mxGeometry relative="1" as="geometry" />
        </mxCell>
        <mxCell id="11TxupdLAGD5MneOCEoi-108" value="派车单管理" style="ellipse;whiteSpace=wrap;html=1;labelPosition=center;verticalLabelPosition=middle;align=center;verticalAlign=middle;" vertex="1" parent="1">
          <mxGeometry x="40" y="1970" width="130" height="50" as="geometry" />
        </mxCell>
        <mxCell id="11TxupdLAGD5MneOCEoi-109" value="派车单新增" style="ellipse;whiteSpace=wrap;html=1;labelPosition=center;verticalLabelPosition=middle;align=center;verticalAlign=middle;" vertex="1" parent="1">
          <mxGeometry x="254" y="1770" width="126" height="50" as="geometry" />
        </mxCell>
        <mxCell id="11TxupdLAGD5MneOCEoi-110" value="派车单查询" style="ellipse;whiteSpace=wrap;html=1;labelPosition=center;verticalLabelPosition=middle;align=center;verticalAlign=middle;" vertex="1" parent="1">
          <mxGeometry x="254" y="1830" width="126" height="50" as="geometry" />
        </mxCell>
        <mxCell id="11TxupdLAGD5MneOCEoi-111" value="派车单确认" style="ellipse;whiteSpace=wrap;html=1;labelPosition=center;verticalLabelPosition=middle;align=center;verticalAlign=middle;" vertex="1" parent="1">
          <mxGeometry x="254" y="1890" width="126" height="50" as="geometry" />
        </mxCell>
        <mxCell id="11TxupdLAGD5MneOCEoi-112" value="派车单取消" style="ellipse;whiteSpace=wrap;html=1;labelPosition=center;verticalLabelPosition=middle;align=center;verticalAlign=middle;" vertex="1" parent="1">
          <mxGeometry x="464" y="1830" width="126" height="50" as="geometry" />
        </mxCell>
        <mxCell id="11TxupdLAGD5MneOCEoi-113" value="通知派车" style="ellipse;whiteSpace=wrap;html=1;labelPosition=center;verticalLabelPosition=middle;align=center;verticalAlign=middle;" vertex="1" parent="1">
          <mxGeometry x="257" y="1960" width="126" height="50" as="geometry" />
        </mxCell>
        <mxCell id="11TxupdLAGD5MneOCEoi-114" value="更换司机" style="ellipse;whiteSpace=wrap;html=1;labelPosition=center;verticalLabelPosition=middle;align=center;verticalAlign=middle;" vertex="1" parent="1">
          <mxGeometry x="257" y="2020" width="126" height="50" as="geometry" />
        </mxCell>
        <mxCell id="11TxupdLAGD5MneOCEoi-115" value="司机接单" style="ellipse;whiteSpace=wrap;html=1;labelPosition=center;verticalLabelPosition=middle;align=center;verticalAlign=middle;" vertex="1" parent="1">
          <mxGeometry x="257.5" y="2080" width="126" height="50" as="geometry" />
        </mxCell>
        <mxCell id="11TxupdLAGD5MneOCEoi-116" value="派车单状态查询" style="ellipse;whiteSpace=wrap;html=1;labelPosition=center;verticalLabelPosition=middle;align=center;verticalAlign=middle;" vertex="1" parent="1">
          <mxGeometry x="257.5" y="2150" width="122.5" height="50" as="geometry" />
        </mxCell>
        <mxCell id="11TxupdLAGD5MneOCEoi-152" style="edgeStyle=orthogonalEdgeStyle;rounded=0;orthogonalLoop=1;jettySize=auto;html=1;exitX=1;exitY=0.5;exitDx=0;exitDy=0;" edge="1" parent="1" source="11TxupdLAGD5MneOCEoi-119">
          <mxGeometry relative="1" as="geometry">
            <mxPoint x="460" y="2245" as="targetPoint" />
          </mxGeometry>
        </mxCell>
        <mxCell id="11TxupdLAGD5MneOCEoi-119" value="回单登记" style="ellipse;whiteSpace=wrap;html=1;labelPosition=center;verticalLabelPosition=middle;align=center;verticalAlign=middle;" vertex="1" parent="1">
          <mxGeometry x="257.5" y="2220" width="122.5" height="50" as="geometry" />
        </mxCell>
        <mxCell id="11TxupdLAGD5MneOCEoi-120" value="回单附件上传" style="ellipse;whiteSpace=wrap;html=1;labelPosition=center;verticalLabelPosition=middle;align=center;verticalAlign=middle;" vertex="1" parent="1">
          <mxGeometry x="463.5" y="2220" width="122.5" height="50" as="geometry" />
        </mxCell>
        <mxCell id="11TxupdLAGD5MneOCEoi-121" value="回单附件预览&lt;br&gt;" style="ellipse;whiteSpace=wrap;html=1;labelPosition=center;verticalLabelPosition=middle;align=center;verticalAlign=middle;" vertex="1" parent="1">
          <mxGeometry x="465.75" y="2288" width="122.5" height="50" as="geometry" />
        </mxCell>
        <mxCell id="11TxupdLAGD5MneOCEoi-122" value="全流程跟踪查询" style="ellipse;whiteSpace=wrap;html=1;labelPosition=center;verticalLabelPosition=middle;align=center;verticalAlign=middle;" vertex="1" parent="1">
          <mxGeometry x="468.25" y="2360" width="120" height="50" as="geometry" />
        </mxCell>
        <mxCell id="11TxupdLAGD5MneOCEoi-137" style="edgeStyle=orthogonalEdgeStyle;rounded=0;orthogonalLoop=1;jettySize=auto;html=1;exitX=0.5;exitY=0.5;exitDx=0;exitDy=0;exitPerimeter=0;entryX=0;entryY=0.3333333333333333;entryDx=0;entryDy=0;entryPerimeter=0;" edge="1" parent="1" source="11TxupdLAGD5MneOCEoi-1" target="11TxupdLAGD5MneOCEoi-1">
          <mxGeometry relative="1" as="geometry" />
        </mxCell>
        <mxCell id="11TxupdLAGD5MneOCEoi-141" value="Actor" style="shape=umlActor;verticalLabelPosition=bottom;verticalAlign=top;html=1;" vertex="1" parent="1">
          <mxGeometry x="-190" y="1724" width="30" height="60" as="geometry" />
        </mxCell>
      </root>
    </mxGraphModel>
  </diagram>
</mxfile>
